<?xml version="1.0" encoding="UTF-8" standalone="no"?>
<!DOCTYPE svg PUBLIC "-//W3C//DTD SVG 1.1//EN" "http://www.w3.org/Graphics/SVG/1.1/DTD/svg11.dtd">
<svg width="100%" height="100%" viewBox="0 0 404 444" version="1.1" xmlns="http://www.w3.org/2000/svg" xmlns:xlink="http://www.w3.org/1999/xlink" xml:space="preserve" xmlns:serif="http://www.serif.com/" style="fill-rule:evenodd;clip-rule:evenodd;stroke-linecap:round;stroke-linejoin:round;stroke-miterlimit:1.5;">
    <g id="TraceFor3D">
        <path id="BlueSky" d="M12,16L390,16C390,16 389.492,136.585 390.038,192C391.046,294.147 299.355,392.213 201,432C84.017,384.485 13.006,279.74 11.962,192C11.278,134.609 12,16 12,16Z" style="fill:rgb(77,109,244);"/>
        <clipPath id="_clip1">
            <path id="BlueSky1" serif:id="BlueSky" d="M12,16L390,16C390,16 389.492,136.585 390.038,192C391.046,294.147 299.355,392.213 201,432C84.017,384.485 13.006,279.74 11.962,192C11.278,134.609 12,16 12,16Z"/>
        </clipPath>
        <g clip-path="url(#_clip1)">
            <g id="Mountains">
                <path id="MMountain" d="M167,243C172.284,237.904 176.5,230.667 184,229C189.247,227.834 194.765,225.783 200,227C207.167,228.667 219,234 227,240C232.122,243.842 236.798,245.168 242,251C248.763,258.582 280.544,281.198 267,285C248,290.333 144.667,290 128,283C111.333,276 157.667,252 167,243Z" style="fill:rgb(154,91,58);stroke:black;stroke-width:2px;"/>
                <path id="LMountain" d="M120,254C121.871,250.163 125.781,249.748 130,246C132.774,243.536 138.833,240.5 143,240C145.409,239.711 146.655,236.375 149,237C154,238.333 163.47,243.11 172,248C174.219,249.272 201.167,253.833 207,259C209.301,261.038 210.726,263.933 213,266C220.333,272.667 266.054,291.596 251,299C230.667,309 112.833,333.5 91,326C69.167,318.5 113.5,267.333 120,254Z" style="fill:rgb(154,91,58);stroke:black;stroke-width:2px;"/>
                <path id="RMountain" d="M187,276C191.79,271.87 199.333,269.833 205,270C208.725,270.11 209.692,266.716 215,265C219.823,263.441 225.5,257.5 232,256C235.788,255.126 238.549,251.789 242,250C246.5,247.667 253.333,243 259,242C262.842,241.322 266.161,237.302 270,238C275.5,239 284.347,243.425 292,248C303.391,254.81 333.916,294.104 316,303C291.833,315 168.5,324.5 147,320C127.599,315.939 177.333,284.333 187,276Z" style="fill:rgb(154,91,58);stroke:black;stroke-width:2px;"/>
                <path id="RRRMountain" d="M325,261C328.803,257.823 333.367,251.757 335,250C338.519,246.213 348.1,247.698 354,250C360.833,252.667 368.333,264.833 376,266C379.632,266.553 375.195,275.102 372,281C367.667,289 355.472,310.399 353.147,312.405C335.877,327.296 271.167,319.833 262,311C252.833,302.167 312.833,271.167 325,261Z" style="fill:rgb(154,91,58);stroke:black;stroke-width:2px;"/>
                <path id="RRMountain" d="M210,278C228.43,271.63 247.5,267.667 264,266C277.153,264.671 293.167,245.167 297,244C308.349,240.546 325.144,261.523 335,271C342.418,278.133 345.167,275.167 368,283C370.197,283.754 367.177,290.294 362.933,296.609C356.1,306.776 339.004,330.767 331.773,341.28C309.91,373.064 181.5,332 158,320C138.156,309.867 191.261,284.477 210,278Z" style="fill:rgb(154,91,58);stroke:black;stroke-width:2px;"/>
                <path id="LLMountain" d="M28,273C29.968,268.111 37.165,268.264 43,268C46.794,267.828 78.167,245.333 93,245C102.484,244.787 109.122,252.364 120,254C126.649,255 155.833,266.333 165,269C168.217,269.936 172.838,268.893 175,270C178.144,271.609 182.167,274.667 185,276C187.196,277.033 191.12,275.738 192,278C193.167,281 196.998,292.14 192,294C162,305.167 63.43,338.226 50.534,313.874C43.499,300.589 33.222,289.345 30.06,278.949C29.564,277.318 27.328,274.67 28,273Z" style="fill:rgb(154,91,58);stroke:black;stroke-width:2px;"/>
            </g>
            <path id="Grass" d="M41,297C152.993,273.706 266.997,271.351 365,293C351.599,316.746 335.523,338.352 317,358C281.59,389.545 244.277,417.759 200.857,435.286C156.855,416.18 125.078,394.363 94.082,366.251C72.3,346.497 54.539,323.275 41,297Z" style="fill:rgb(0,142,76);stroke:black;stroke-width:2px;"/>
            <path id="River" d="M197,279C194.471,278.262 191.071,285.732 197,287C204.896,288.688 209.695,290.266 196,292C147.35,298.161 163.796,309.955 196,316C227.313,321.878 237.993,329.541 195,337C160.071,343.06 107.773,364.602 192,377C215.087,380.398 268.011,386.184 268,398C267.999,399.077 268.167,398.667 275,393C281.165,387.888 285.614,385.532 292,380C297.882,374.905 298.7,374.985 298,374C289.833,362.5 242.795,361.918 230,361C185.215,357.785 191.11,352.767 228,342C265.562,331.037 261.925,314.615 224,310C180.953,304.761 181.868,298.23 216,296C246.929,293.979 235.02,283.357 212,284C206.968,284.14 195.694,281.394 197,279Z" style="fill:rgb(156,0,48);stroke:black;stroke-width:2px;"/>
            <g id="RDragon" transform="matrix(-1.02316,0,0,1.02316,399.796,-97.1974)">
                <path d="M239,135C231.548,128.758 226.095,139.169 221,139C213.029,138.736 206.833,125.167 192,126C186.352,126.317 179.785,129.507 180,138C180.301,149.865 201.414,155.593 201,166C200.812,170.717 194.671,177.759 188,178C180.165,178.283 166.333,168.333 155,168C145.523,167.721 132.333,175 133,187C133.316,192.697 135.167,199.667 135,204C134.814,208.841 128.335,214.155 120,214C104.441,213.71 107.931,196.965 99,188C85.826,174.775 59.689,184.991 56,176C55.154,173.939 63,168 63,168C63,168 53.727,174.439 48,174C38.162,173.246 42.667,177.333 40,178C37.333,178.667 32.044,177.104 32,178C31.667,184.833 39,182 39,184C39,186 31.237,180.758 32,190C32.048,190.579 43.907,185.889 52,196C70,183.915 89.171,190.272 85,193C82.931,194.353 73.901,203.091 72,202C62.162,196.355 58.268,192.654 55,204C54.472,205.832 57.734,198.681 60,199C60,199 56.477,203.693 58,205C58.178,205.153 60.287,199.352 63,201C63.944,202.333 68.833,203.667 62,205C62,205 62.611,207.036 68,205C70.687,203.985 73.098,204.784 75.311,204.795C81.69,204.827 83.227,200.192 89,200C93.433,199.852 82.667,209.333 81,212C80.117,213.413 77.833,211.667 78,216C78.014,216.372 81.343,211.209 82,214C82.138,214.585 81.524,216.966 82,218C83,215.598 84.333,212.836 86,214C86.547,214.382 85.628,218.021 86,218C87.028,217.941 87.614,215.705 87,212C86.807,210.836 88.833,209 91,209C92.167,209 93.657,210.628 94,212C95.5,218 105.333,226 118,227C126.697,227.687 144.667,220.5 146,206C146.553,199.988 142.833,192.5 144,188C145.065,183.893 150.333,179.333 153,179C155.667,178.667 163.082,185.012 160,186C156.039,187.27 146.115,199.728 149,198C150.788,196.928 152.136,193.525 152,197C151.987,197.333 151.917,198.323 152,198C153.188,193.372 155.43,192.84 157,196C157.66,197.329 159.118,192.059 157,191C160.068,191.388 163.79,190.156 165,184C167.437,185.819 163.36,194.351 161,197C158.82,199.447 162.256,204.994 165,204C166.044,203.622 167.876,201.457 168,199C168.107,196.895 166.969,193.196 169,192C171.829,190.333 170.76,182 170,182C170,182 195.92,197.437 205,177C214.009,156.722 204,156.5 198,152C193.083,148.312 186.333,141.667 186,138C185.667,134.333 191.793,129.279 196,130C201.833,131 213.833,143.167 221,144C227.663,144.775 241.329,136.951 239,135Z"/>
            </g>
            <path id="LDragon" d="M239,135C231.548,128.758 226.095,139.169 221,139C213.029,138.736 206.833,125.167 192,126C186.352,126.317 179.785,129.507 180,138C180.301,149.865 201.414,155.593 201,166C200.812,170.717 194.671,177.759 188,178C180.165,178.283 166.333,168.333 155,168C145.523,167.721 132.333,175 133,187C133.316,192.697 135.167,199.667 135,204C134.814,208.841 128.335,214.155 120,214C104.441,213.71 107.931,196.965 99,188C85.826,174.775 59.639,185.011 56,176C55.177,173.962 63,168 63,168C63,168 53.704,174.439 48,174C38.163,173.243 42.667,177.333 40,178C37.333,178.667 32.044,177.104 32,178C31.667,184.833 39,182 39,184C39,186 31.237,180.758 32,190C32.048,190.579 43.907,185.889 52,196C70,183.915 89.171,190.272 85,193C82.931,194.353 73.901,203.091 72,202C62.162,196.355 58.268,192.654 55,204C54.472,205.832 57.734,198.681 60,199C60,199 56.477,203.693 58,205C58.178,205.153 60.287,199.352 63,201C63.944,202.333 68.833,203.667 62,205C62,205 62.611,207.036 68,205C70.687,203.985 73.098,204.784 75.311,204.795C81.69,204.827 83.227,200.192 89,200C93.433,199.852 82.667,209.333 81,212C80.117,213.413 77.833,211.667 78,216C78.014,216.372 81.343,211.209 82,214C82.138,214.585 81.524,216.966 82,218C83,215.598 84.333,212.836 86,214C86.547,214.382 85.628,218.021 86,218C87.028,217.941 87.614,215.705 87,212C86.807,210.836 88.833,209 91,209C92.167,209 93.657,210.628 94,212C95.5,218 105.333,226 118,227C126.697,227.687 144.667,220.5 146,206C146.553,199.988 142.833,192.5 144,188C145.065,183.893 150.333,179.333 153,179C155.667,178.667 163.082,185.012 160,186C156.039,187.27 146.115,199.728 149,198C150.788,196.928 152.136,193.525 152,197C151.987,197.333 151.917,198.323 152,198C153.188,193.372 155.43,192.84 157,196C157.66,197.329 159.118,192.059 157,191C160.068,191.388 163.79,190.156 165,184C167.437,185.819 163.36,194.351 161,197C158.82,199.447 162.256,204.994 165,204C166.044,203.622 167.876,201.457 168,199C168.107,196.895 166.969,193.196 169,192C171.829,190.333 170.76,182 170,182C170,182 195.92,197.437 205,177C214.009,156.722 204,156.5 198,152C193.083,148.312 186.333,141.667 186,138C185.667,134.333 191.793,129.279 196,130C201.833,131 213.833,143.167 221,144C227.663,144.775 241.329,136.951 239,135Z"/>
        </g>
        <path id="BlueSky2" serif:id="BlueSky" d="M12,11C9.25,11 7.017,13.22 7,15.97C7,15.97 6.278,134.639 6.962,192.06C8.025,281.385 80.021,388.259 199.118,436.632C200.323,437.122 201.67,437.123 202.875,436.635C303.038,396.117 396.064,295.975 395.038,191.951C394.492,136.558 395,16.021 395,16.021C395.006,14.691 394.481,13.414 393.543,12.472C392.605,11.53 391.33,11 390,11L12,11ZM12,16L390,16C390,16 389.492,136.585 390.038,192C391.046,294.147 299.355,392.213 201,432C84.017,384.485 13.006,279.74 11.962,192C11.278,134.609 12,16 12,16Z"/>
    </g>
</svg>
